<svg width="39" height="38" viewBox="0 0 39 38" fill="none" xmlns="http://www.w3.org/2000/svg">
<path d="M38.2778 25.333C38.4693 25.333 38.653 25.2496 38.7885 25.1011C38.9239 24.9527 39 24.7513 39 24.5414C39 24.3314 38.9239 24.13 38.7885 23.9816C38.653 23.8331 38.4693 23.7497 38.2778 23.7497C34.2145 23.7469 30.1733 24.4031 26.2853 25.6972C24.6807 24.5512 23.0127 23.5154 21.2911 22.5959C26.689 20.2083 32.457 18.9872 38.2778 18.9998C38.4693 18.9998 38.653 18.9164 38.7885 18.7679C38.9239 18.6194 39 18.4181 39 18.2081C39 17.9981 38.9239 17.7968 38.7885 17.6483C38.653 17.4998 38.4693 17.4164 38.2778 17.4164C37.0669 17.4164 35.8631 17.4666 34.6667 17.5669V10.2915C34.6667 10.1686 34.6406 10.0474 34.5904 9.9375C34.5403 9.82757 34.4675 9.73195 34.3778 9.65821L22.8222 0.158331C22.6972 0.0555566 22.5452 0 22.3889 0C22.2326 0 22.0806 0.0555566 21.9556 0.158331L10.4 9.65821C10.3103 9.73195 10.2375 9.82757 10.1874 9.9375C10.1372 10.0474 10.1111 10.1686 10.1111 10.2915V18.4456C7.02064 17.7601 3.87534 17.4153 0.722222 17.4164C0.530677 17.4164 0.346977 17.4998 0.211534 17.6483C0.0760912 17.7968 0 17.9981 0 18.2081C0 18.4181 0.0760912 18.6194 0.211534 18.7679C0.346977 18.9164 0.530677 18.9998 0.722222 18.9998C7.54546 18.9851 14.2837 20.6594 20.4341 23.8978C26.5846 27.1363 31.9886 31.8552 36.2429 37.7026C36.3648 37.8591 36.5374 37.9574 36.7242 37.9767C36.911 37.9961 37.0973 37.935 37.2438 37.8064C37.3902 37.6777 37.4852 37.4917 37.5087 37.2877C37.5322 37.0836 37.4823 36.8775 37.3696 36.7131C36.1669 35.0689 34.8742 33.5065 33.4985 32.0344C35.0818 31.7898 36.6788 31.6668 38.2778 31.6663C38.4693 31.6663 38.653 31.5829 38.7885 31.4344C38.9239 31.2859 39 31.0846 39 30.8746C39 30.6646 38.9239 30.4633 38.7885 30.3148C38.653 30.1664 38.4693 30.0829 38.2778 30.0829C36.2298 30.0835 34.1856 30.2769 32.1678 30.6609C30.7928 29.2988 29.3459 28.0266 27.8344 26.851C31.2388 25.8401 34.7507 25.3296 38.2778 25.333ZM26 19.1977C23.7846 19.8571 21.6163 20.6939 19.5126 21.7013C19.2671 21.5865 19.0233 21.4677 18.7778 21.3569V14.2498H26V19.1977ZM11.5556 10.6874L22.3889 1.78123L33.2222 10.6874V17.7113C31.2776 17.9379 29.3479 18.2981 27.4444 18.79V13.4582C27.4444 13.2482 27.3684 13.0468 27.2329 12.8984C27.0975 12.7499 26.9138 12.6665 26.7222 12.6665H18.0556C17.864 12.6665 17.6803 12.7499 17.5449 12.8984C17.4094 13.0468 17.3333 13.2482 17.3333 13.4582V20.7236C15.4472 19.9471 13.5173 19.3051 11.5556 18.8018V10.6874ZM20.4931 37.6452C20.4406 37.732 20.373 37.8066 20.2943 37.8647C20.2155 37.9228 20.127 37.9633 20.0339 37.9839C19.9409 38.0044 19.845 38.0047 19.7518 37.9846C19.6587 37.9646 19.57 37.9246 19.491 37.8669C13.9314 33.8118 7.4001 31.6541 0.722222 31.6663C0.530677 31.6663 0.346977 31.5829 0.211534 31.4344C0.0760912 31.2859 0 31.0846 0 30.8746C0 30.6646 0.0760912 30.4633 0.211534 30.3148C0.346977 30.1664 0.530677 30.0829 0.722222 30.0829C7.68467 30.0713 14.4941 32.3213 20.2908 36.5488C20.4502 36.6649 20.5609 36.8456 20.5989 37.0512C20.6368 37.2567 20.5987 37.4704 20.4931 37.6452ZM29.5335 36.6418C29.6704 36.7888 29.7485 36.9894 29.7505 37.1995C29.7526 37.4095 29.6784 37.6119 29.5443 37.762C29.4102 37.9121 29.2272 37.9977 29.0356 38C28.8439 38.0022 28.6593 37.9209 28.5224 37.7739C21.1111 29.777 11.1217 25.3067 0.722222 25.333C0.530677 25.333 0.346977 25.2496 0.211534 25.1011C0.0760912 24.9527 0 24.7513 0 24.5414C0 24.3314 0.0760912 24.13 0.211534 23.9816C0.346977 23.8331 0.530677 23.7497 0.722222 23.7497C11.4998 23.7219 21.8526 28.3544 29.5335 36.6418Z" fill="black"/>
</svg>
