<svg width="20" height="24" viewBox="0 0 20 24" fill="none" xmlns="http://www.w3.org/2000/svg">
<mask id="path-1-inside-1_1170_7260" fill="white">
<path d="M19.4008 22.7907L14.3776 16.6799C15.7854 14.7959 16.5317 12.3168 16.457 9.77227C16.3823 7.22777 15.4925 4.81972 13.9777 3.0627C12.4629 1.30568 10.4433 0.339041 8.3505 0.369344C6.25766 0.399646 4.25755 1.42449 2.77758 3.22487C1.29762 5.02525 0.455166 7.45838 0.430256 10.0043C0.405346 12.5503 1.19995 15.0071 2.64428 16.8498C4.0886 18.6925 6.06809 19.775 8.15975 19.8659C10.2514 19.9568 12.2893 19.0489 13.8381 17.3362L18.8613 23.447C18.9328 23.534 19.0299 23.5829 19.1311 23.5829C19.2322 23.5829 19.3293 23.534 19.4008 23.447C19.4723 23.36 19.5125 23.2419 19.5125 23.1189C19.5125 22.9958 19.4723 22.8777 19.4008 22.7907ZM1.21132 10.132C1.21132 8.38906 1.63618 6.68526 2.43218 5.23605C3.22818 3.78684 4.35956 2.65732 5.68325 1.99032C7.00695 1.32333 8.46351 1.14881 9.86873 1.48884C11.274 1.82887 12.5647 2.66818 13.5779 3.90063C14.591 5.13308 15.2809 6.70332 15.5604 8.41278C15.8399 10.1222 15.6965 11.8941 15.1482 13.5044C14.5999 15.1147 13.6714 16.491 12.4801 17.4593C11.2888 18.4277 9.88823 18.9445 8.45547 18.9445C6.53482 18.9421 4.69342 18.0128 3.33531 16.3607C1.97721 14.7085 1.21334 12.4685 1.21132 10.132Z"/>
</mask>
<path d="M19.4008 22.7907L14.3776 16.6799C15.7854 14.7959 16.5317 12.3168 16.457 9.77227C16.3823 7.22777 15.4925 4.81972 13.9777 3.0627C12.4629 1.30568 10.4433 0.339041 8.3505 0.369344C6.25766 0.399646 4.25755 1.42449 2.77758 3.22487C1.29762 5.02525 0.455166 7.45838 0.430256 10.0043C0.405346 12.5503 1.19995 15.0071 2.64428 16.8498C4.0886 18.6925 6.06809 19.775 8.15975 19.8659C10.2514 19.9568 12.2893 19.0489 13.8381 17.3362L18.8613 23.447C18.9328 23.534 19.0299 23.5829 19.1311 23.5829C19.2322 23.5829 19.3293 23.534 19.4008 23.447C19.4723 23.36 19.5125 23.2419 19.5125 23.1189C19.5125 22.9958 19.4723 22.8777 19.4008 22.7907ZM1.21132 10.132C1.21132 8.38906 1.63618 6.68526 2.43218 5.23605C3.22818 3.78684 4.35956 2.65732 5.68325 1.99032C7.00695 1.32333 8.46351 1.14881 9.86873 1.48884C11.274 1.82887 12.5647 2.66818 13.5779 3.90063C14.591 5.13308 15.2809 6.70332 15.5604 8.41278C15.8399 10.1222 15.6965 11.8941 15.1482 13.5044C14.5999 15.1147 13.6714 16.491 12.4801 17.4593C11.2888 18.4277 9.88823 18.9445 8.45547 18.9445C6.53482 18.9421 4.69342 18.0128 3.33531 16.3607C1.97721 14.7085 1.21334 12.4685 1.21132 10.132Z" fill="#01533E"/>
<path d="M19.4008 22.7907L18.6283 23.4257L19.4008 22.7907ZM14.3776 16.6799L13.5765 16.0813L13.1072 16.7093L13.6051 17.3149L14.3776 16.6799ZM13.8381 17.3362L14.6106 16.7012L13.8742 15.8054L13.0963 16.6655L13.8381 17.3362ZM18.8613 23.447L19.6338 22.812L18.8613 23.447ZM19.1311 23.5829V22.5829V23.5829ZM19.5125 23.1189H18.5125H19.5125ZM1.21132 10.132H0.211322L0.211323 10.1329L1.21132 10.132ZM8.45547 18.9445L8.45419 19.9445H8.45547V18.9445ZM20.1733 22.1557L15.1501 16.0449L13.6051 17.3149L18.6283 23.4257L20.1733 22.1557ZM15.1786 17.2785C16.7331 15.1983 17.5374 12.4933 17.4566 9.74292L15.4575 9.80162C15.5261 12.1402 14.8378 14.3935 13.5765 16.0813L15.1786 17.2785ZM17.4566 9.74292C17.3758 6.99273 16.4147 4.3579 14.7351 2.40974L13.2203 3.71566C14.5703 5.28155 15.3888 7.4628 15.4575 9.80162L17.4566 9.74292ZM14.7351 2.40974C13.0507 0.455966 10.7592 -0.665637 8.33603 -0.630551L8.36498 1.36924C10.1275 1.34372 11.8752 2.15539 13.2203 3.71566L14.7351 2.40974ZM8.33603 -0.630551C5.91356 -0.595476 3.64794 0.591321 2.00509 2.58985L3.55008 3.85989C4.86717 2.25765 6.60176 1.39477 8.36498 1.36924L8.33603 -0.630551ZM2.00509 2.58985C0.366477 4.58322 -0.542774 7.24285 -0.569696 9.99454L1.43021 10.0141C1.4531 7.6739 2.22875 5.46728 3.55008 3.85989L2.00509 2.58985ZM-0.569696 9.99454C-0.596619 12.7463 0.260325 15.4293 1.85723 17.4667L3.43133 16.2329C2.13958 14.5849 1.40731 12.3542 1.43021 10.0141L-0.569696 9.99454ZM1.85723 17.4667C3.45782 19.5088 5.69626 20.7598 8.11634 20.865L8.20316 18.8668C6.43992 18.7902 4.71939 17.8763 3.43133 16.2329L1.85723 17.4667ZM8.11634 20.865C10.5386 20.9702 12.8546 19.9148 14.5798 18.0069L13.0963 16.6655C11.7241 18.183 9.96425 18.9434 8.20316 18.8668L8.11634 20.865ZM13.0656 17.9712L18.0888 24.082L19.6338 22.812L14.6106 16.7012L13.0656 17.9712ZM18.0888 24.082C18.3259 24.3705 18.6943 24.5829 19.1311 24.5829V22.5829C19.3654 22.5829 19.5398 22.6976 19.6338 22.812L18.0888 24.082ZM19.1311 24.5829C19.5678 24.5829 19.9362 24.3705 20.1733 24.082L18.6283 22.812C18.7223 22.6976 18.8967 22.5829 19.1311 22.5829V24.5829ZM20.1733 24.082C20.4059 23.7991 20.5125 23.4507 20.5125 23.1189H18.5125C18.5125 23.0332 18.5388 22.9208 18.6283 22.812L20.1733 24.082ZM20.5125 23.1189C20.5125 22.7871 20.4059 22.4386 20.1733 22.1557L18.6283 23.4257C18.5388 23.3169 18.5125 23.2045 18.5125 23.1189H20.5125ZM2.21132 10.132C2.21132 8.54794 2.59812 7.01111 3.30867 5.71747L1.55569 4.75463C0.674245 6.35941 0.211322 8.23018 0.211322 10.132H2.21132ZM3.30867 5.71747C4.01906 4.42412 5.01059 3.44905 6.13324 2.88336L5.23326 1.09729C3.70853 1.86559 2.4373 3.14956 1.55569 4.75463L3.30867 5.71747ZM6.13324 2.88336C7.25097 2.32014 8.46512 2.17806 9.63354 2.46079L10.1039 0.516891C8.46189 0.119558 6.76293 0.326507 5.23326 1.09729L6.13324 2.88336ZM9.63354 2.46079C10.8059 2.74448 11.915 3.45253 12.8054 4.53565L14.3504 3.26562C13.2145 1.88383 11.742 0.913265 10.1039 0.516891L9.63354 2.46079ZM12.8054 4.53565C13.697 5.62032 14.32 7.02333 14.5735 8.57415L16.5473 8.25141C16.2419 6.38331 15.4849 4.64584 14.3504 3.26562L12.8054 4.53565ZM14.5735 8.57415C14.827 10.1246 14.6959 11.7302 14.2016 13.1821L16.0948 13.8267C16.6971 12.058 16.8528 10.1199 16.5473 8.25141L14.5735 8.57415ZM14.2016 13.1821C13.7071 14.6343 12.8794 15.8461 11.8494 16.6834L13.1109 18.2353C14.4634 17.1359 15.4927 15.5951 16.0948 13.8267L14.2016 13.1821ZM11.8494 16.6834C10.8226 17.5179 9.64144 17.9445 8.45547 17.9445V19.9445C10.135 19.9445 11.755 19.3374 13.1109 18.2353L11.8494 16.6834ZM8.45675 17.9445C6.87112 17.9425 5.3006 17.1767 4.10781 15.7257L2.56282 16.9957C4.08624 18.8489 6.19853 19.9416 8.45419 19.9445L8.45675 17.9445ZM4.10781 15.7257C2.91051 14.2691 2.21316 12.2592 2.21132 10.1311L0.211323 10.1329C0.213521 12.6778 1.04391 15.1479 2.56282 16.9957L4.10781 15.7257Z" fill="#004215" mask="url(#path-1-inside-1_1170_7260)"/>
</svg>
