<svg width="24" height="24" viewBox="0 0 24 24" fill="none" xmlns="http://www.w3.org/2000/svg">
<path d="M19.5 2H17.25V1.25C17.25 1.05109 17.171 0.860322 17.0303 0.71967C16.8897 0.579018 16.6989 0.5 16.5 0.5C16.3011 0.5 16.1103 0.579018 15.9697 0.71967C15.829 0.860322 15.75 1.05109 15.75 1.25V2H8.25V1.25C8.25 1.05109 8.17098 0.860322 8.03033 0.71967C7.88968 0.579018 7.69891 0.5 7.5 0.5C7.30109 0.5 7.11032 0.579018 6.96967 0.71967C6.82902 0.860322 6.75 1.05109 6.75 1.25V2H4.5C4.10218 2 3.72064 2.15804 3.43934 2.43934C3.15804 2.72064 3 3.10218 3 3.5V18.5C3 18.8978 3.15804 19.2794 3.43934 19.5607C3.72064 19.842 4.10218 20 4.5 20H19.5C19.8978 20 20.2794 19.842 20.5607 19.5607C20.842 19.2794 21 18.8978 21 18.5V3.5C21 3.10218 20.842 2.72064 20.5607 2.43934C20.2794 2.15804 19.8978 2 19.5 2ZM6.75 3.5V4.25C6.75 4.44891 6.82902 4.63968 6.96967 4.78033C7.11032 4.92098 7.30109 5 7.5 5C7.69891 5 7.88968 4.92098 8.03033 4.78033C8.17098 4.63968 8.25 4.44891 8.25 4.25V3.5H15.75V4.25C15.75 4.44891 15.829 4.63968 15.9697 4.78033C16.1103 4.92098 16.3011 5 16.5 5C16.6989 5 16.8897 4.92098 17.0303 4.78033C17.171 4.63968 17.25 4.44891 17.25 4.25V3.5H19.5V6.5H4.5V3.5H6.75ZM19.5 18.5H4.5V8H19.5V18.5ZM13.125 11.375C13.125 11.5975 13.059 11.815 12.9354 12C12.8118 12.185 12.6361 12.3292 12.4305 12.4144C12.225 12.4995 11.9988 12.5218 11.7805 12.4784C11.5623 12.435 11.3618 12.3278 11.2045 12.1705C11.0472 12.0132 10.94 11.8127 10.8966 11.5945C10.8532 11.3762 10.8755 11.15 10.9606 10.9445C11.0458 10.7389 11.19 10.5632 11.375 10.4396C11.56 10.316 11.7775 10.25 12 10.25C12.2984 10.25 12.5845 10.3685 12.7955 10.5795C13.0065 10.7905 13.125 11.0766 13.125 11.375ZM17.25 11.375C17.25 11.5975 17.184 11.815 17.0604 12C16.9368 12.185 16.7611 12.3292 16.5555 12.4144C16.35 12.4995 16.1238 12.5218 15.9055 12.4784C15.6873 12.435 15.4868 12.3278 15.3295 12.1705C15.1722 12.0132 15.065 11.8127 15.0216 11.5945C14.9782 11.3762 15.0005 11.15 15.0856 10.9445C15.1708 10.7389 15.315 10.5632 15.5 10.4396C15.685 10.316 15.9025 10.25 16.125 10.25C16.4234 10.25 16.7095 10.3685 16.9205 10.5795C17.1315 10.7905 17.25 11.0766 17.25 11.375ZM9 15.125C9 15.3475 8.93402 15.565 8.8104 15.75C8.68679 15.935 8.51109 16.0792 8.30552 16.1644C8.09995 16.2495 7.87375 16.2718 7.65552 16.2284C7.43729 16.185 7.23684 16.0778 7.0795 15.9205C6.92217 15.7632 6.81502 15.5627 6.77162 15.3445C6.72821 15.1262 6.75049 14.9 6.83564 14.6945C6.92078 14.4889 7.06498 14.3132 7.24998 14.1896C7.43499 14.066 7.6525 14 7.875 14C8.17337 14 8.45952 14.1185 8.6705 14.3295C8.88147 14.5405 9 14.8266 9 15.125ZM13.125 15.125C13.125 15.3475 13.059 15.565 12.9354 15.75C12.8118 15.935 12.6361 16.0792 12.4305 16.1644C12.225 16.2495 11.9988 16.2718 11.7805 16.2284C11.5623 16.185 11.3618 16.0778 11.2045 15.9205C11.0472 15.7632 10.94 15.5627 10.8966 15.3445C10.8532 15.1262 10.8755 14.9 10.9606 14.6945C11.0458 14.4889 11.19 14.3132 11.375 14.1896C11.56 14.066 11.7775 14 12 14C12.2984 14 12.5845 14.1185 12.7955 14.3295C13.0065 14.5405 13.125 14.8266 13.125 15.125ZM17.25 15.125C17.25 15.3475 17.184 15.565 17.0604 15.75C16.9368 15.935 16.7611 16.0792 16.5555 16.1644C16.35 16.2495 16.1238 16.2718 15.9055 16.2284C15.6873 16.185 15.4868 16.0778 15.3295 15.9205C15.1722 15.7632 15.065 15.5627 15.0216 15.3445C14.9782 15.1262 15.0005 14.9 15.0856 14.6945C15.1708 14.4889 15.315 14.3132 15.5 14.1896C15.685 14.066 15.9025 14 16.125 14C16.4234 14 16.7095 14.1185 16.9205 14.3295C17.1315 14.5405 17.25 14.8266 17.25 15.125Z" fill="white"/>
</svg>
