<svg width="27" height="27" viewBox="0 0 27 27" fill="none" xmlns="http://www.w3.org/2000/svg">
<path d="M25.1071 18.4496V13.7815C25.1085 13.4147 25.0162 13.0572 24.8441 12.7629C24.672 12.4686 24.4294 12.2534 24.1529 12.1497H24.1406L19.75 10.6245V4.97646C19.75 4.8258 19.703 4.68131 19.6192 4.57478C19.5355 4.46824 19.422 4.40839 19.3036 4.40839C19.1852 4.40839 19.0716 4.46824 18.9879 4.57478C18.9042 4.68131 18.8571 4.8258 18.8571 4.97646V10.3177L15.2857 9.08641V2.13613H16.625C16.7434 2.13613 16.857 2.07628 16.9407 1.96975C17.0244 1.86322 17.0714 1.71873 17.0714 1.56807C17.0714 1.41741 17.0244 1.27292 16.9407 1.16638C16.857 1.05985 16.7434 1 16.625 1H3.23215C3.11375 1 3.00019 1.05985 2.91647 1.16638C2.83275 1.27292 2.78572 1.41741 2.78572 1.56807C2.78572 1.71873 2.83275 1.86322 2.91647 1.96975C3.00019 2.07628 3.11375 2.13613 3.23215 2.13613H4.57143V7.81679H3.23215C3.11375 7.81679 3.00019 7.87664 2.91647 7.98317C2.83275 8.0897 2.78572 8.23419 2.78572 8.38485C2.78572 8.53551 2.83275 8.68 2.91647 8.78654C3.00019 8.89307 3.11375 8.95292 3.23215 8.95292H6.35715C8.48762 8.95593 10.5302 10.0342 12.0366 11.9511C13.5431 13.8681 14.3905 16.4671 14.3929 19.1781V20.8823C14.3929 21.033 14.4399 21.1774 14.5236 21.284C14.6073 21.3905 14.7209 21.4504 14.8393 21.4504H18.8571C18.8565 22.1859 18.9962 22.9106 19.2641 23.5623C19.5321 24.214 19.9204 24.7732 20.3956 25.1919C20.8709 25.6106 21.4189 25.8762 21.9926 25.966C22.5663 26.0558 23.1486 25.9671 23.6894 25.7074C24.2302 25.4477 24.7134 25.0249 25.0975 24.4753C25.4816 23.9256 25.7551 23.2655 25.8945 22.5517C26.034 21.8379 26.0352 21.0917 25.898 20.3772C25.7609 19.6627 25.4895 19.0012 25.1071 18.4496ZM6.35715 7.81679H5.46429V2.13613H14.3929V8.18248V14.2288C13.661 12.3084 12.5194 10.6888 11.0984 9.55492C9.67741 8.42105 8.03441 7.81873 6.35715 7.81679ZM15.2857 20.3142V10.2637L23.9007 13.2319C23.9925 13.2683 24.0726 13.3414 24.1291 13.4405C24.1856 13.5395 24.2155 13.6591 24.2143 13.7815V17.525C23.6728 17.1207 23.0564 16.907 22.4286 16.9058C21.6368 16.9068 20.8676 17.2419 20.2415 17.8587C19.6154 18.4755 19.1678 19.3391 18.9688 20.3142H15.2857ZM22.4286 24.8588C21.8988 24.8588 21.3809 24.6589 20.9404 24.2843C20.5 23.9098 20.1566 23.3775 19.9539 22.7547C19.7512 22.1319 19.6981 21.4466 19.8015 20.7854C19.9048 20.1243 20.1599 19.5169 20.5345 19.0403C20.9091 18.5636 21.3864 18.239 21.906 18.1075C22.4256 17.9759 22.9642 18.0434 23.4536 18.3014C23.9431 18.5594 24.3614 18.9963 24.6557 19.5568C24.9501 20.1173 25.1071 20.7762 25.1071 21.4504C25.1071 22.3543 24.8249 23.2213 24.3226 23.8605C23.8203 24.4997 23.139 24.8588 22.4286 24.8588ZM6.35715 12.3613C5.2976 12.3613 4.26185 12.7611 3.38088 13.5101C2.4999 14.2592 1.81326 15.3238 1.40779 16.5694C1.00232 17.815 0.896232 19.1857 1.10294 20.508C1.30964 21.8303 1.81986 23.045 2.56907 23.9983C3.31828 24.9516 4.27284 25.6009 5.31202 25.8639C6.3512 26.1269 7.42835 25.9919 8.40724 25.476C9.38613 24.96 10.2228 24.0863 10.8114 22.9653C11.4001 21.8443 11.7143 20.5263 11.7143 19.1781C11.7128 17.3708 11.1479 15.638 10.1436 14.36C9.13925 13.082 7.77749 12.3632 6.35715 12.3613ZM6.35715 24.8588C5.47419 24.8588 4.61107 24.5256 3.87692 23.9014C3.14277 23.2772 2.57057 22.39 2.23268 21.352C1.89479 20.314 1.80638 19.1718 1.97864 18.0699C2.1509 16.9679 2.57608 15.9557 3.20042 15.1613C3.82476 14.3668 4.62022 13.8258 5.48621 13.6066C6.35219 13.3874 7.24981 13.4999 8.06555 13.9299C8.8813 14.3598 9.57852 15.0879 10.0691 16.0221C10.5596 16.9563 10.8214 18.0546 10.8214 19.1781C10.8214 19.9241 10.706 20.6628 10.4816 21.352C10.2573 22.0412 9.92842 22.6674 9.51387 23.1949C9.09933 23.7224 8.60719 24.1409 8.06555 24.4263C7.52392 24.7118 6.9434 24.8588 6.35715 24.8588ZM7.25 19.1781C7.25 19.4028 7.19764 19.6225 7.09953 19.8093C7.00142 19.9961 6.86198 20.1418 6.69883 20.2277C6.53568 20.3137 6.35616 20.3362 6.18296 20.2924C6.00976 20.2486 5.85067 20.1404 5.7258 19.9815C5.60093 19.8226 5.5159 19.6201 5.48144 19.3997C5.44699 19.1794 5.46467 18.9509 5.53225 18.7433C5.59983 18.5357 5.71427 18.3583 5.8611 18.2334C6.00793 18.1086 6.18056 18.042 6.35715 18.042C6.59395 18.042 6.82105 18.1617 6.98849 18.3747C7.15593 18.5878 7.25 18.8768 7.25 19.1781Z" fill="#532301" stroke="#532301"/>
</svg>
