<svg width="27" height="20" viewBox="0 0 27 20" fill="none" xmlns="http://www.w3.org/2000/svg">
<path d="M24.375 1.09375H2.625C2.26447 1.09375 1.91871 1.24191 1.66378 1.50563C1.40884 1.76935 1.26562 2.12704 1.26562 2.5V17.5C1.26562 17.873 1.40884 18.2306 1.66378 18.4944C1.91871 18.7581 2.26447 18.9062 2.625 18.9062H24.375C24.7355 18.9062 25.0813 18.7581 25.3362 18.4944C25.5912 18.2306 25.7344 17.873 25.7344 17.5V2.5C25.7344 2.12704 25.5912 1.76935 25.3362 1.50563C25.0813 1.24191 24.7355 1.09375 24.375 1.09375ZM2.625 2.03125H24.375C24.4952 2.03125 24.6104 2.08064 24.6954 2.16854C24.7804 2.25645 24.8281 2.37568 24.8281 2.5V5.78125H2.17188V2.5C2.17188 2.37568 2.21961 2.25645 2.30459 2.16854C2.38957 2.08064 2.50482 2.03125 2.625 2.03125ZM24.375 17.9688H2.625C2.50482 17.9688 2.38957 17.9194 2.30459 17.8315C2.21961 17.7435 2.17188 17.6243 2.17188 17.5V6.71875H24.8281V17.5C24.8281 17.6243 24.7804 17.7435 24.6954 17.8315C24.6104 17.9194 24.4952 17.9688 24.375 17.9688ZM22.1094 14.6875C22.1094 14.8118 22.0616 14.931 21.9767 15.019C21.8917 15.1069 21.7764 15.1562 21.6562 15.1562H18.0312C17.9111 15.1562 17.7958 15.1069 17.7108 15.019C17.6259 14.931 17.5781 14.8118 17.5781 14.6875C17.5781 14.5632 17.6259 14.444 17.7108 14.356C17.7958 14.2681 17.9111 14.2188 18.0312 14.2188H21.6562C21.7764 14.2188 21.8917 14.2681 21.9767 14.356C22.0616 14.444 22.1094 14.5632 22.1094 14.6875ZM14.8594 14.6875C14.8594 14.8118 14.8116 14.931 14.7267 15.019C14.6417 15.1069 14.5264 15.1562 14.4062 15.1562H12.5938C12.4736 15.1562 12.3583 15.1069 12.2733 15.019C12.1884 14.931 12.1406 14.8118 12.1406 14.6875C12.1406 14.5632 12.1884 14.444 12.2733 14.356C12.3583 14.2681 12.4736 14.2188 12.5938 14.2188H14.4062C14.5264 14.2188 14.6417 14.2681 14.7267 14.356C14.8116 14.444 14.8594 14.5632 14.8594 14.6875Z" fill="#004215" stroke="#532301"/>
</svg>
