<svg width="27" height="27" viewBox="0 0 27 27" fill="none" xmlns="http://www.w3.org/2000/svg">
<path d="M21.2381 4.73032V2.38889C21.2381 2.02053 21.05 1.66726 20.7151 1.4068C20.3802 1.14633 19.926 1 19.4524 1H7.54762C7.07402 1 6.61981 1.14633 6.28493 1.4068C5.95004 1.66726 5.7619 2.02053 5.7619 2.38889V4.73032C4.45251 4.84419 3.24298 5.32936 2.36452 6.09311C1.48605 6.85685 1.00026 7.84561 1 8.87037V21.8333C1 22.9384 1.56441 23.9982 2.56907 24.7796C3.57373 25.561 4.93634 26 6.35714 26H20.6429C22.0637 26 23.4263 25.561 24.4309 24.7796C25.4356 23.9982 26 22.9384 26 21.8333V8.87037C25.9997 7.84561 25.514 6.85685 24.6355 6.09311C23.757 5.32936 22.5475 4.84419 21.2381 4.73032ZM20.0476 2.38889V4.7037H16.4762V1.92593H19.4524C19.6102 1.92593 19.7616 1.9747 19.8733 2.06152C19.9849 2.14835 20.0476 2.2661 20.0476 2.38889ZM11.7143 4.7037V1.92593H15.2857V4.7037H11.7143ZM7.54762 1.92593H10.5238V4.7037H6.95238V2.38889C6.95238 2.2661 7.01509 2.14835 7.12672 2.06152C7.23835 1.9747 7.38975 1.92593 7.54762 1.92593ZM24.8095 21.8333C24.8095 22.6928 24.3705 23.5171 23.5891 24.1249C22.8077 24.7326 21.7479 25.0741 20.6429 25.0741H6.35714C5.25207 25.0741 4.19227 24.7326 3.41086 24.1249C2.62946 23.5171 2.19048 22.6928 2.19048 21.8333V8.87037C2.19048 8.01087 2.62946 7.18658 3.41086 6.57882C4.19227 5.97106 5.25207 5.62963 6.35714 5.62963H20.6429C21.7479 5.62963 22.8077 5.97106 23.5891 6.57882C24.3705 7.18658 24.8095 8.01087 24.8095 8.87037V21.8333Z" fill="#532301" stroke="#532301"/>
</svg>
