<svg width="22" height="22" viewBox="0 0 22 22" fill="none" xmlns="http://www.w3.org/2000/svg">
<path d="M21.2262 11.661C21.4015 11.4857 21.5 11.2479 21.5 11C21.5 10.7521 21.4015 10.5143 21.2262 10.339C21.0509 10.1637 20.8131 10.0652 20.5652 10.0652H11.9348V1.43478C11.9348 1.18686 11.8363 0.949099 11.661 0.773792C11.4857 0.598486 11.2479 0.5 11 0.5C10.7521 0.5 10.5143 0.598486 10.339 0.773792C10.1637 0.949099 10.0652 1.18686 10.0652 1.43478V10.0652H1.43478C1.18687 10.0652 0.949101 10.1637 0.773792 10.339C0.598485 10.5143 0.5 10.7521 0.5 11C0.5 11.2479 0.598486 11.4857 0.773792 11.661C0.949099 11.8363 1.18686 11.9348 1.43478 11.9348H10.0652V20.5652C10.0652 20.8131 10.1637 21.0509 10.339 21.2262C10.5143 21.4015 10.7521 21.5 11 21.5C11.2479 21.5 11.4857 21.4015 11.661 21.2262C11.8363 21.0509 11.9348 20.8131 11.9348 20.5652V11.9348H20.5652C20.8131 11.9348 21.0509 11.8363 21.2262 11.661Z" fill="white" stroke="white"/>
</svg>
