<svg width="31" height="31" viewBox="0 0 31 31" fill="none" xmlns="http://www.w3.org/2000/svg">
<path d="M29.463 19.9581C29.6054 19.9581 29.742 19.8944 29.8427 19.7811C29.9434 19.6678 30 19.5142 30 19.3539C30 19.1937 29.9434 19.04 29.8427 18.9267C29.742 18.8134 29.6054 18.7498 29.463 18.7498C26.4416 18.7476 23.4365 19.2484 20.5455 20.236C19.3523 19.3614 18.112 18.571 16.8319 17.8692C20.8456 16.0471 25.1347 15.1152 29.463 15.1248C29.6054 15.1248 29.742 15.0612 29.8427 14.9479C29.9434 14.8346 30 14.6809 30 14.5207C30 14.3604 29.9434 14.2068 29.8427 14.0934C29.742 13.9801 29.6054 13.9165 29.463 13.9165C28.5625 13.9165 27.6675 13.9548 26.7778 14.0313V8.47907C26.7778 8.38527 26.7584 8.29277 26.7211 8.20888C26.6838 8.12499 26.6297 8.05201 26.563 7.99574L17.9704 0.745832C17.8774 0.667398 17.7643 0.625 17.6481 0.625C17.5319 0.625 17.4189 0.667398 17.3259 0.745832L8.73333 7.99574C8.66663 8.05201 8.6125 8.12499 8.57521 8.20888C8.53793 8.29277 8.51852 8.38527 8.51852 8.47907V14.7019C6.22048 14.1787 3.88166 13.9156 1.53704 13.9165C1.39461 13.9165 1.25801 13.9801 1.15729 14.0934C1.05658 14.2068 1 14.3604 1 14.5207C1 14.6809 1.05658 14.8346 1.15729 14.9479C1.25801 15.0612 1.39461 15.1248 1.53704 15.1248C6.61073 15.1136 11.6212 16.3914 16.1946 18.8628C20.768 21.3343 24.7864 24.9356 27.9499 29.3981C28.0405 29.5174 28.1688 29.5925 28.3077 29.6072C28.4466 29.622 28.5852 29.5754 28.6941 29.4772C28.803 29.3791 28.8736 29.2371 28.8911 29.0814C28.9085 28.9256 28.8714 28.7684 28.7876 28.6429C27.8934 27.3881 26.9321 26.1957 25.9091 25.0723C27.0865 24.8856 28.274 24.7918 29.463 24.7914C29.6054 24.7914 29.742 24.7277 29.8427 24.6144C29.9434 24.5011 30 24.3474 30 24.1872C30 24.027 29.9434 23.8733 29.8427 23.76C29.742 23.6467 29.6054 23.583 29.463 23.583C27.9401 23.5835 26.4201 23.731 24.9196 24.0241C23.8972 22.9846 22.8213 22.0137 21.6974 21.1166C24.2289 20.3451 26.8403 19.9555 29.463 19.9581ZM20.3333 15.2759C18.686 15.7791 17.0737 16.4177 15.5094 17.1865C15.3268 17.0989 15.1456 17.0083 14.963 16.9237V11.4999H20.3333V15.2759ZM9.59259 8.78115L17.6481 1.98436L25.7037 8.78115V14.1415C24.2577 14.3144 22.8228 14.5894 21.4074 14.9647V10.8957C21.4074 10.7355 21.3508 10.5818 21.2501 10.4685C21.1494 10.3552 21.0128 10.2915 20.8704 10.2915H14.4259C14.2835 10.2915 14.1469 10.3552 14.0462 10.4685C13.9455 10.5818 13.8889 10.7355 13.8889 10.8957V16.4404C12.4864 15.8478 11.0513 15.3579 9.59259 14.9738V8.78115ZM16.2384 29.3543C16.1994 29.4205 16.1492 29.4774 16.0906 29.5217C16.032 29.5661 15.9662 29.597 15.897 29.6127C15.8278 29.6284 15.7565 29.6286 15.6873 29.6133C15.618 29.598 15.5521 29.5674 15.4933 29.5234C11.3593 26.4288 6.50264 24.7821 1.53704 24.7914C1.39461 24.7914 1.25801 24.7277 1.15729 24.6144C1.05658 24.5011 1 24.3474 1 24.1872C1 24.027 1.05658 23.8733 1.15729 23.76C1.25801 23.6467 1.39461 23.583 1.53704 23.583C6.71424 23.5742 11.7777 25.2913 16.0881 28.5175C16.2065 28.6061 16.2889 28.744 16.3171 28.9009C16.3453 29.0578 16.317 29.2208 16.2384 29.3543ZM22.9608 28.5885C23.0626 28.7007 23.1207 28.8537 23.1222 29.0141C23.1237 29.1744 23.0685 29.3288 22.9688 29.4434C22.8691 29.5579 22.7331 29.6233 22.5906 29.625C22.448 29.6267 22.3108 29.5646 22.2089 29.4524C16.698 23.3496 9.27 19.938 1.53704 19.9581C1.39461 19.9581 1.25801 19.8944 1.15729 19.7811C1.05658 19.6678 1 19.5142 1 19.3539C1 19.1937 1.05658 19.04 1.15729 18.9267C1.25801 18.8134 1.39461 18.7498 1.53704 18.7498C9.55116 18.7286 17.2494 22.2639 22.9608 28.5885Z" fill="#532301" stroke="#532301"/>
</svg>
