<svg width="24" height="24" viewBox="0 0 24 24" fill="none" xmlns="http://www.w3.org/2000/svg">
<g clip-path="url(#clip0_1143_3756)">
<path d="M24 11.5195V23.04C24 23.2946 23.8946 23.5388 23.7071 23.7188C23.5196 23.8989 23.2652 24 23 24H16C15.7348 24 15.4804 23.8989 15.2929 23.7188C15.1054 23.5388 15 23.2946 15 23.04V16.7997C15 16.6724 14.9473 16.5503 14.8536 16.4603C14.7598 16.3703 14.6326 16.3197 14.5 16.3197H9.5C9.36739 16.3197 9.24021 16.3703 9.14645 16.4603C9.05268 16.5503 9 16.6724 9 16.7997V23.04C9 23.2946 8.89464 23.5388 8.70711 23.7188C8.51957 23.8989 8.26522 24 8 24H1C0.734784 24 0.48043 23.8989 0.292893 23.7188C0.105357 23.5388 0 23.2946 0 23.04V11.5195C0.000245862 11.0104 0.211121 10.5222 0.58625 10.1623L10.5863 0.561931C10.9613 0.20212 11.4698 0 12 0C12.5302 0 13.0387 0.20212 13.4137 0.561931L23.4137 10.1623C23.7889 10.5222 23.9998 11.0104 24 11.5195Z" fill="white"/>
</g>
<defs>
<clipPath id="clip0_1143_3756">
<rect width="24" height="24" fill="white"/>
</clipPath>
</defs>
</svg>
