<svg width="24" height="24" viewBox="0 0 24 24" fill="none" xmlns="http://www.w3.org/2000/svg">
<path d="M22.201 17.6334L14.0026 3.39563C13.7977 3.04681 13.5052 2.75758 13.1541 2.55662C12.803 2.35566 12.4055 2.24994 12.001 2.24994C11.5965 2.24994 11.199 2.35566 10.8479 2.55662C10.4968 2.75758 10.2043 3.04681 9.99944 3.39563L1.80101 17.6334C1.60388 17.9708 1.5 18.3546 1.5 18.7453C1.5 19.1361 1.60388 19.5198 1.80101 19.8572C2.00325 20.2081 2.29523 20.4989 2.64697 20.6997C2.99871 20.9006 3.39755 21.0042 3.80257 21H20.1994C20.6041 21.0039 21.0026 20.9001 21.354 20.6993C21.7054 20.4985 21.997 20.2078 22.1991 19.8572C22.3965 19.52 22.5007 19.1363 22.5011 18.7456C22.5014 18.3548 22.3978 17.971 22.201 17.6334ZM20.9007 19.1063C20.8292 19.2282 20.7266 19.3289 20.6034 19.3981C20.4802 19.4673 20.3407 19.5024 20.1994 19.5H3.80257C3.66127 19.5024 3.52185 19.4673 3.39863 19.3981C3.2754 19.3289 3.17279 19.2282 3.10132 19.1063C3.03658 18.9966 3.00243 18.8717 3.00243 18.7444C3.00243 18.6171 3.03658 18.4921 3.10132 18.3825L11.2998 4.14469C11.3727 4.02335 11.4757 3.92295 11.599 3.85324C11.7222 3.78354 11.8613 3.7469 12.0029 3.7469C12.1444 3.7469 12.2836 3.78354 12.4068 3.85324C12.53 3.92295 12.6331 4.02335 12.706 4.14469L20.9044 18.3825C20.9686 18.4924 21.0021 18.6176 21.0015 18.7449C21.0008 18.8722 20.966 18.997 20.9007 19.1063ZM11.251 13.5V9.75C11.251 9.55109 11.33 9.36032 11.4707 9.21967C11.6113 9.07902 11.8021 9 12.001 9C12.1999 9 12.3907 9.07902 12.5313 9.21967C12.672 9.36032 12.751 9.55109 12.751 9.75V13.5C12.751 13.6989 12.672 13.8897 12.5313 14.0303C12.3907 14.171 12.1999 14.25 12.001 14.25C11.8021 14.25 11.6113 14.171 11.4707 14.0303C11.33 13.8897 11.251 13.6989 11.251 13.5ZM13.126 16.875C13.126 17.0975 13.06 17.315 12.9364 17.5C12.8128 17.685 12.6371 17.8292 12.4315 17.9144C12.226 17.9995 11.9998 18.0218 11.7815 17.9784C11.5633 17.935 11.3628 17.8278 11.2055 17.6705C11.0482 17.5132 10.941 17.3127 10.8976 17.0945C10.8542 16.8762 10.8765 16.65 10.9616 16.4445C11.0468 16.2389 11.191 16.0632 11.376 15.9396C11.561 15.816 11.7785 15.75 12.001 15.75C12.2994 15.75 12.5855 15.8685 12.7965 16.0795C13.0075 16.2905 13.126 16.5766 13.126 16.875Z" fill="white"/>
</svg>
