<svg width="35" height="37" viewBox="0 0 35 37" fill="none" xmlns="http://www.w3.org/2000/svg">
<path d="M34.221 24.2597C34.3885 24.2597 34.5491 24.1804 34.6675 24.0392C34.7859 23.898 34.8524 23.7065 34.8524 23.5068C34.8524 23.3072 34.7859 23.1157 34.6675 22.9745C34.5491 22.8333 34.3885 22.754 34.221 22.754C30.6688 22.7513 27.1359 23.3754 23.7369 24.606C22.3342 23.5162 20.876 22.5312 19.3709 21.6567C24.0899 19.3862 29.1324 18.225 34.221 18.2369C34.3885 18.2369 34.5491 18.1576 34.6675 18.0164C34.7859 17.8752 34.8524 17.6837 34.8524 17.484C34.8524 17.2844 34.7859 17.0929 34.6675 16.9517C34.5491 16.8105 34.3885 16.7312 34.221 16.7312C33.1624 16.7312 32.1101 16.7789 31.0641 16.8742V9.95552C31.0641 9.83865 31.0413 9.72337 30.9975 9.61884C30.9536 9.5143 30.89 9.42337 30.8116 9.35324L20.7095 0.319027C20.6002 0.22129 20.4672 0.168457 20.3306 0.168457C20.194 0.168457 20.0611 0.22129 19.9518 0.319027L9.8497 9.35324C9.77129 9.42337 9.70764 9.5143 9.66381 9.61884C9.61997 9.72337 9.59715 9.83865 9.59715 9.95552V17.7099C6.8954 17.058 4.14571 16.7301 1.38919 16.7312C1.22174 16.7312 1.06115 16.8105 0.94274 16.9517C0.824333 17.0929 0.757812 17.2844 0.757812 17.484C0.757812 17.6837 0.824333 17.8752 0.94274 18.0164C1.06115 18.1576 1.22174 18.2369 1.38919 18.2369C7.35421 18.2229 13.2449 19.8152 18.6217 22.8949C23.9986 25.9746 28.7229 30.4622 32.4421 36.023C32.5486 36.1717 32.6995 36.2652 32.8628 36.2836C33.0261 36.302 33.189 36.2439 33.3171 36.1216C33.4451 35.9993 33.5281 35.8224 33.5487 35.6283C33.5692 35.4343 33.5256 35.2383 33.4271 35.0819C32.3757 33.5184 31.2455 32.0325 30.0429 30.6326C31.427 30.4 32.8232 30.283 34.221 30.2825C34.3885 30.2825 34.5491 30.2032 34.6675 30.062C34.7859 29.9208 34.8524 29.7293 34.8524 29.5297C34.8524 29.33 34.7859 29.1385 34.6675 28.9973C34.5491 28.8561 34.3885 28.7768 34.221 28.7768C32.4306 28.7774 30.6436 28.9612 28.8795 29.3264C27.6775 28.0311 26.4126 26.8213 25.0913 25.7033C28.0674 24.7419 31.1376 24.2565 34.221 24.2597ZM23.4875 18.4251C21.5508 19.0522 19.6552 19.848 17.8162 20.806C17.6015 20.6968 17.3884 20.5839 17.1737 20.4785V13.7198H23.4875V18.4251ZM10.8599 10.3319L20.3306 1.86237L29.8014 10.3319V17.0116C28.1013 17.2271 26.4143 17.5696 24.7503 18.0374V12.9669C24.7503 12.7673 24.6838 12.5758 24.5654 12.4346C24.447 12.2934 24.2864 12.2141 24.1189 12.2141H16.5423C16.3749 12.2141 16.2143 12.2934 16.0959 12.4346C15.9775 12.5758 15.911 12.7673 15.911 12.9669V19.8762C14.2621 19.1378 12.5749 18.5273 10.8599 18.0487V10.3319ZM18.6733 35.9684C18.6274 36.0509 18.5683 36.1218 18.4995 36.1771C18.4306 36.2323 18.3533 36.2708 18.2719 36.2904C18.1905 36.31 18.1067 36.3103 18.0253 36.2912C17.9438 36.2721 17.8663 36.2341 17.7972 36.1792C12.937 32.3229 7.22713 30.2709 1.38919 30.2825C1.22174 30.2825 1.06115 30.2032 0.94274 30.062C0.824333 29.9208 0.757812 29.7293 0.757812 29.5297C0.757812 29.33 0.824333 29.1385 0.94274 28.9973C1.06115 28.8561 1.22174 28.7768 1.38919 28.7768C7.47591 28.7657 13.4289 30.9054 18.4965 34.9257C18.6358 35.0361 18.7326 35.208 18.7658 35.4035C18.7989 35.599 18.7656 35.8021 18.6733 35.9684ZM26.5766 35.0142C26.6963 35.1539 26.7646 35.3447 26.7663 35.5445C26.7681 35.7443 26.7033 35.9367 26.586 36.0795C26.4688 36.2222 26.3088 36.3036 26.1413 36.3057C25.9738 36.3079 25.8124 36.2305 25.6926 36.0908C19.2136 28.4859 10.4807 24.2346 1.38919 24.2597C1.22174 24.2597 1.06115 24.1804 0.94274 24.0392C0.824333 23.898 0.757812 23.7065 0.757812 23.5068C0.757812 23.3072 0.824333 23.1157 0.94274 22.9745C1.06115 22.8333 1.22174 22.754 1.38919 22.754C10.8112 22.7276 19.8618 27.133 26.5766 35.0142Z" fill="#002F24"/>
</svg>
