<svg width="29" height="29" viewBox="0 0 29 29" fill="none" xmlns="http://www.w3.org/2000/svg">
<path d="M28.8356 27.2354C26.7142 23.4215 23.4451 20.6868 19.63 19.3904C21.5171 18.2222 22.9833 16.442 23.8034 14.3233C24.6235 12.2047 24.7521 9.86463 24.1695 7.66258C23.5869 5.46053 22.3253 3.51824 20.5785 2.13397C18.8317 0.7497 16.6962 0 14.5 0C12.3038 0 10.1683 0.7497 8.42148 2.13397C6.67465 3.51824 5.41308 5.46053 4.8305 7.66258C4.24792 9.86463 4.37654 12.2047 5.19661 14.3233C6.01669 16.442 7.48287 18.2222 9.37 19.3904C5.55488 20.6854 2.28578 23.4201 0.164411 27.2354C0.086617 27.3673 0.0350166 27.5141 0.0126546 27.6671C-0.00970738 27.8201 -0.00237804 27.9762 0.0342102 28.1261C0.0707984 28.2761 0.135905 28.417 0.225687 28.5404C0.315469 28.6638 0.428109 28.7672 0.556961 28.8446C0.685813 28.922 0.828267 28.9718 0.975918 28.991C1.12357 29.0102 1.27343 28.9985 1.41665 28.9565C1.55987 28.9145 1.69355 28.8432 1.80981 28.7466C1.92607 28.65 2.02255 28.5302 2.09356 28.3942C4.71776 23.6779 9.35607 20.8621 14.5 20.8621C19.6439 20.8621 24.2822 23.6779 26.9064 28.3942C26.9775 28.5302 27.0739 28.65 27.1902 28.7466C27.3065 28.8432 27.4401 28.9145 27.5834 28.9565C27.7266 28.9985 27.8764 29.0102 28.0241 28.991C28.1717 28.9718 28.3142 28.922 28.443 28.8446C28.5719 28.7672 28.6845 28.6638 28.7743 28.5404C28.8641 28.417 28.9292 28.2761 28.9658 28.1261C29.0024 27.9762 29.0097 27.8201 28.9873 27.6671C28.965 27.5141 28.9134 27.3673 28.8356 27.2354ZM6.69984 10.433C6.69984 8.82871 7.15731 7.26043 8.0144 5.9265C8.87149 4.59257 10.0897 3.5529 11.515 2.93896C12.9403 2.32502 14.5087 2.16439 16.0217 2.47737C17.5348 2.79036 18.9247 3.5629 20.0155 4.69731C21.1064 5.83173 21.8493 7.27706 22.1503 8.85054C22.4513 10.424 22.2968 12.055 21.7064 13.5371C21.116 15.0193 20.1163 16.2862 18.8335 17.1775C17.5508 18.0688 16.0427 18.5445 14.5 18.5445C12.4319 18.5422 10.4492 17.6869 8.98689 16.1662C7.52456 14.6455 6.70205 12.5836 6.69984 10.433Z" fill="#532301"/>
</svg>
