<svg width="20" height="22" viewBox="0 0 20 22" fill="none" xmlns="http://www.w3.org/2000/svg">
<path d="M18.7927 15.4944C18.2724 14.5981 17.4989 12.0622 17.4989 8.75C17.4989 6.76088 16.7087 4.85322 15.3022 3.4467C13.8957 2.04018 11.988 1.25 9.99891 1.25C8.00979 1.25 6.10214 2.04018 4.69561 3.4467C3.28909 4.85322 2.49891 6.76088 2.49891 8.75C2.49891 12.0631 1.72454 14.5981 1.20423 15.4944C1.07135 15.7222 1.00091 15.9811 1.00001 16.2449C0.999103 16.5086 1.06776 16.768 1.19907 16.9967C1.33037 17.2255 1.51968 17.4156 1.74789 17.5478C1.9761 17.6801 2.23515 17.7498 2.49891 17.75H6.32485C6.49789 18.5967 6.95806 19.3577 7.62754 19.9042C8.29702 20.4507 9.1347 20.7492 9.99891 20.7492C10.8631 20.7492 11.7008 20.4507 12.3703 19.9042C13.0398 19.3577 13.4999 18.5967 13.673 17.75H17.4989C17.7626 17.7496 18.0215 17.6798 18.2496 17.5475C18.4777 17.4151 18.6669 17.225 18.7981 16.9963C18.9292 16.7676 18.9978 16.5083 18.9969 16.2446C18.9959 15.9809 18.9255 15.7222 18.7927 15.4944ZM9.99891 19.25C9.53374 19.2499 9.08005 19.1055 8.70029 18.8369C8.32052 18.5683 8.03335 18.1886 7.87829 17.75H12.1195C11.9645 18.1886 11.6773 18.5683 11.2975 18.8369C10.9178 19.1055 10.4641 19.2499 9.99891 19.25ZM2.49891 16.25C3.22079 15.0087 3.99891 12.1325 3.99891 8.75C3.99891 7.1587 4.63105 5.63258 5.75627 4.50736C6.88149 3.38214 8.40761 2.75 9.99891 2.75C11.5902 2.75 13.1163 3.38214 14.2416 4.50736C15.3668 5.63258 15.9989 7.1587 15.9989 8.75C15.9989 12.1297 16.7752 15.0059 17.4989 16.25H2.49891Z" fill="white" stroke="white"/>
</svg>
