<svg width="33" height="35" viewBox="0 0 33 35" fill="none" xmlns="http://www.w3.org/2000/svg">
<path d="M16.25 32.5841H16.2506C20.0397 32.5795 23.665 30.9674 26.3334 28.1136C29.0007 25.261 30.4957 21.4001 30.5 17.3794V17.3789C30.5 14.3788 29.6683 11.4435 28.1068 8.94418C26.545 6.44452 24.3219 4.49097 21.7144 3.33589C19.1065 2.18059 16.2346 1.87768 13.4635 2.46717C10.6927 3.0566 8.15253 4.5105 6.16207 6.63924C4.17195 8.76762 2.82005 11.4754 2.27264 14.4186C1.72524 17.3617 2.00594 20.4127 3.08041 23.1869C4.15496 25.9613 5.97669 28.3379 8.32021 30.0126C10.6642 31.6876 13.4238 32.5841 16.25 32.5841ZM17.5 18.2157H17V18.7157V24.0631C17 24.2954 16.9134 24.5121 16.7687 24.6669C16.625 24.8205 16.4377 24.8999 16.25 24.8999C16.0623 24.8999 15.875 24.8205 15.7313 24.6669C15.5866 24.5121 15.5 24.2954 15.5 24.0631V18.7157V18.2157H15H10C9.81234 18.2157 9.62498 18.1363 9.48134 17.9827C9.33663 17.8279 9.25001 17.6113 9.25001 17.3789C9.25001 17.1465 9.33663 16.9298 9.48134 16.7751C9.62498 16.6215 9.81234 16.542 10 16.542H15H15.5V16.042V10.6947C15.5 10.4623 15.5866 10.2457 15.7313 10.0909C15.875 9.93728 16.0623 9.85786 16.25 9.85786C16.4377 9.85786 16.625 9.93728 16.7687 10.0909C16.9134 10.2457 17 10.4623 17 10.6947V16.042V16.542H17.5H22.5C22.6877 16.542 22.875 16.6215 23.0187 16.7751C23.1634 16.9298 23.25 17.1465 23.25 17.3789C23.25 17.6113 23.1634 17.8279 23.0187 17.9827C22.875 18.1363 22.6877 18.2157 22.5 18.2157H17.5ZM7.51269 3.33568C10.1021 1.4853 13.1425 0.500058 16.2497 0.5C20.4143 0.504785 24.4145 2.27593 27.3702 5.43702C30.3271 8.59933 31.9956 12.8937 32 17.3794C31.9999 20.7247 31.0722 23.9924 29.3373 26.7691C27.6026 29.5457 25.1404 31.7044 22.2661 32.9777C19.3923 34.2508 16.2322 34.5833 13.1838 33.9348C10.1352 33.2862 7.32986 31.6844 5.12474 29.3261C2.91929 26.9675 1.41396 23.9584 0.803816 20.6779C0.193656 17.3973 0.507062 13.9972 1.70322 10.9089C2.8993 7.82065 4.92274 5.18645 7.51269 3.33568Z" fill="#01533E" stroke="#01533E"/>
</svg>
